<svg xmlns="http://www.w3.org/2000/svg" xmlns:xlink="http://www.w3.org/1999/xlink" width="500" zoomAndPan="magnify" viewBox="0 0 375 374.999991" height="500" preserveAspectRatio="xMidYMid meet" version="1.0"><defs><clipPath id="id1"><path d="M 22.640625 83.019531 L 352.347656 83.019531 L 352.347656 304.269531 L 22.640625 304.269531 Z M 22.640625 83.019531 " clip-rule="nonzero"/></clipPath><clipPath id="id2"><path d="M 183 159.914062 L 217 159.914062 L 217 193 L 183 193 Z M 183 159.914062 " clip-rule="nonzero"/></clipPath><clipPath id="id3"><path d="M 101 267 L 128 267 L 128 279.914062 L 101 279.914062 Z M 101 267 " clip-rule="nonzero"/></clipPath></defs><g clip-path="url(#id1)"><path fill="rgb(21.958923%, 71.369934%, 100%)" d="M 74.269531 156.632812 C 77.65625 133.652344 97.425781 116.222656 121.035156 116.222656 C 128.308594 116.222656 135.394531 117.898438 141.867188 121.085938 C 155.246094 97.84375 180.273438 83.132812 207.398438 83.132812 C 247.164062 83.132812 279.789062 113.992188 282.765625 153.015625 C 321.78125 155.992188 352.640625 188.640625 352.640625 228.433594 C 352.640625 270.179688 318.699219 304.144531 276.980469 304.144531 C 276.933594 304.144531 276.890625 304.132812 276.84375 304.132812 L 97.722656 304.132812 C 56.324219 303.832031 22.640625 269.875 22.640625 228.433594 C 22.640625 195.816406 43.664062 166.875 74.269531 156.632812 Z M 97.765625 291.964844 L 276.980469 291.964844 C 277.011719 291.964844 277.039062 291.976562 277.070312 291.976562 C 312.046875 291.925781 340.484375 263.441406 340.484375 228.433594 C 340.484375 193.394531 311.996094 164.886719 276.980469 164.886719 C 268.542969 164.886719 260.359375 166.515625 252.648438 169.722656 C 249.550781 171.007812 245.992188 169.539062 244.703125 166.4375 C 243.414062 163.335938 244.882812 159.773438 247.984375 158.484375 C 255.21875 155.476562 262.8125 153.679688 270.609375 153.03125 C 267.679688 120.710938 240.464844 95.296875 207.398438 95.296875 C 184.359375 95.296875 163.101562 107.933594 151.980469 127.847656 C 157.070312 132.261719 161.21875 137.675781 164.042969 143.835938 C 165.445312 146.886719 164.105469 150.5 161.054688 151.902344 C 158 153.304688 154.398438 151.960938 152.992188 148.914062 C 150.332031 143.117188 146.144531 138.148438 140.871094 134.550781 C 134.980469 130.519531 128.117188 128.390625 121.039062 128.390625 C 102.421875 128.390625 87.015625 142.988281 85.972656 161.617188 C 85.828125 164.230469 84.027344 166.457031 81.507812 167.144531 C 54.007812 174.667969 34.800781 199.871094 34.800781 228.433594 C 34.796875 263.214844 63.066406 291.714844 97.765625 291.964844 Z M 97.765625 291.964844 " fill-opacity="1" fill-rule="nonzero"/></g><path fill="rgb(22.349548%, 28.62854%, 67.059326%)" d="M 171.503906 228.164062 L 148.140625 204.894531 C 145.558594 202.324219 141.371094 202.324219 138.792969 204.894531 L 120.101562 223.507812 L 120.09375 232.820312 L 143.464844 256.097656 L 152.8125 256.089844 L 171.503906 237.476562 C 174.082031 234.902344 174.082031 230.734375 171.503906 228.164062 Z M 171.503906 228.164062 " fill-opacity="1" fill-rule="nonzero"/><g clip-path="url(#id2)"><path fill="rgb(36.079407%, 41.958618%, 75.289917%)" d="M 216.671875 166.105469 L 210.453125 159.914062 C 207.984375 160.476562 205.464844 161.761719 204.214844 163.007812 C 201.875 165.335938 203.171875 168.703125 201.875 169.984375 C 200.585938 171.269531 198.492188 171.269531 197.203125 169.984375 L 185.519531 181.621094 C 182.9375 184.191406 182.9375 188.363281 185.519531 190.929688 C 188.101562 193.503906 192.285156 193.5 194.867188 190.933594 L 206.546875 179.292969 C 205.257812 178.011719 205.253906 175.925781 206.546875 174.640625 C 207.839844 173.355469 211.222656 174.640625 213.558594 172.3125 C 214.8125 171.074219 216.109375 168.5625 216.671875 166.105469 Z M 216.671875 166.105469 " fill-opacity="1" fill-rule="nonzero"/></g><path fill="rgb(36.079407%, 41.958618%, 75.289917%)" d="M 120.089844 232.820312 L 143.464844 256.097656 L 127.109375 272.378906 L 103.742188 249.113281 Z M 120.089844 232.820312 " fill-opacity="1" fill-rule="nonzero"/><path fill="rgb(62.348938%, 65.879822%, 85.488892%)" d="M 143.464844 232.820312 L 132.78125 222.1875 L 124.769531 214.203125 L 134.117188 204.894531 L 142.128906 212.878906 L 152.808594 223.507812 Z M 143.464844 232.820312 " fill-opacity="1" fill-rule="nonzero"/><path fill="rgb(84.309387%, 79.998779%, 78.42865%)" d="M 169.167969 225.835938 L 150.476562 207.222656 L 185.523438 172.316406 L 204.214844 190.929688 Z M 169.167969 225.835938 " fill-opacity="1" fill-rule="nonzero"/><path fill="rgb(27.059937%, 35.289001%, 39.219666%)" d="M 194.867188 200.246094 L 176.175781 181.621094 L 180.847656 176.96875 L 199.539062 195.585938 Z M 194.867188 200.246094 " fill-opacity="1" fill-rule="nonzero"/><path fill="rgb(27.059937%, 35.289001%, 39.219666%)" d="M 185.523438 209.550781 L 166.832031 190.929688 L 171.503906 186.28125 L 190.195312 204.894531 Z M 185.523438 209.550781 " fill-opacity="1" fill-rule="nonzero"/><path fill="rgb(73.728943%, 66.668701%, 64.309692%)" d="M 110.75 256.085938 L 108.414062 263.074219 L 113.085938 267.722656 L 120.097656 265.394531 Z M 110.75 256.085938 " fill-opacity="1" fill-rule="nonzero"/><path fill="rgb(73.728943%, 66.668701%, 64.309692%)" d="M 176.175781 218.859375 L 157.484375 200.246094 L 162.15625 195.585938 L 180.847656 214.203125 Z M 176.175781 218.859375 " fill-opacity="1" fill-rule="nonzero"/><path fill="rgb(47.44873%, 52.549744%, 79.60968%)" d="M 162.15625 251.441406 L 143.464844 232.820312 L 152.808594 223.507812 L 163.488281 234.148438 L 171.5 242.136719 Z M 162.15625 251.441406 " fill-opacity="1" fill-rule="nonzero"/><g clip-path="url(#id3)"><path fill="rgb(47.44873%, 52.549744%, 79.60968%)" d="M 122.5 267.789062 L 118.992188 271.238281 C 116.058594 274.15625 111.285156 274.160156 108.34375 271.234375 L 106.054688 268.953125 L 101.515625 273.5625 L 103.804688 275.84375 C 106.527344 278.558594 110.105469 279.910156 113.679688 279.910156 C 117.246094 279.910156 120.8125 278.558594 123.519531 275.859375 L 127.082031 272.355469 Z M 122.5 267.789062 " fill-opacity="1" fill-rule="nonzero"/></g></svg>