<?xml version="1.0" standalone="no"?>
<!DOCTYPE svg PUBLIC "-//W3C//DTD SVG 20010904//EN"
 "http://www.w3.org/TR/2001/REC-SVG-20010904/DTD/svg10.dtd">
<svg version="1.0" xmlns="http://www.w3.org/2000/svg"
 width="1200.000000pt" height="1200.000000pt" viewBox="0 0 1200.000000 1200.000000"
 preserveAspectRatio="xMidYMid meet">

<g transform="translate(0.000000,1200.000000) scale(0.100000,-0.100000)"
fill="#000000" stroke="none">
<path d="M5828 9657 c-76 -45 -138 -85 -138 -90 0 -10 226 -338 234 -340 6 -2
219 445 214 448 -73 46 -114 65 -141 64 -21 -1 -79 -29 -169 -82z"/>
<path d="M6166 9588 c-13 -29 -62 -136 -110 -237 -47 -101 -86 -187 -86 -191
0 -6 324 -483 545 -803 11 -16 41 34 239 397 124 228 226 418 226 423 0 6
-750 450 -781 461 -5 2 -19 -20 -33 -50z"/>
<path d="M4910 9120 l-715 -418 -3 -99 -2 -98 446 -544 447 -543 51 108 c29
60 211 450 406 867 195 416 357 757 360 757 3 0 12 -12 21 -26 l16 -26 12 30
c11 26 10 34 -5 57 l-17 27 -15 -28 -14 -27 -19 24 c-10 13 -69 99 -131 191
-62 92 -115 167 -118 167 -3 0 -327 -189 -720 -419z"/>
<path d="M7026 9127 c-7 -12 -100 -182 -206 -377 -106 -195 -206 -379 -222
-408 l-30 -53 -22 20 -23 21 -11 -25 c-10 -21 -9 -30 5 -51 l16 -26 15 27 c12
23 16 25 26 14 7 -8 210 -302 451 -654 240 -352 443 -646 449 -653 10 -10 47
51 174 285 l162 297 -2 579 -3 579 -383 223 c-376 220 -383 223 -396 202z"/>
<path d="M5530 8230 c-221 -473 -406 -860 -409 -860 -3 0 -12 10 -20 22 l-13
22 -15 -27 c-7 -15 -15 -27 -18 -27 -2 0 -196 235 -432 522 l-428 523 -3 -905
c-2 -715 1 -907 10 -916 30 -27 382 -224 388 -217 3 4 107 224 230 488 123
264 227 484 232 490 5 5 15 0 25 -14 l16 -24 14 27 c8 15 17 24 22 22 4 -3
122 -144 262 -315 192 -235 257 -307 265 -298 16 18 834 1524 834 1536 0 10
-520 774 -544 799 -10 10 -95 -164 -416 -848z"/>
<path d="M6114 7453 c-229 -422 -419 -770 -422 -773 -2 -3 -12 5 -21 17 l-18
22 -19 -24 -19 -24 -255 314 c-140 172 -257 314 -260 314 -6 1 -462 -970 -458
-974 12 -10 592 -345 597 -345 3 0 89 153 190 340 101 187 188 340 191 340 4
0 13 -7 20 -15 17 -20 27 -19 35 6 4 11 11 19 15 17 5 -2 172 -201 370 -443
199 -242 366 -439 372 -437 6 2 147 82 313 179 l301 176 198 364 c109 200 202
366 207 368 4 3 14 -4 22 -15 15 -21 15 -21 33 4 l19 25 110 -164 c61 -90 115
-164 121 -165 7 0 21 8 33 18 21 17 21 19 19 424 l-3 408 -139 -255 c-76 -140
-142 -255 -147 -255 -5 0 -14 9 -21 20 -12 18 -13 18 -29 -6 l-17 -26 -44 64
c-25 34 -229 331 -453 658 -224 327 -411 599 -415 603 -4 5 -196 -337 -426
-760z"/>
<path d="M7318 6518 c-91 -167 -164 -305 -162 -306 1 -2 124 67 273 154 171
100 267 162 263 169 -46 73 -195 285 -201 285 -4 0 -82 -136 -173 -302z"/>
<path d="M5490 6308 c-90 -167 -172 -316 -181 -333 l-18 -30 340 -197 c257
-150 347 -198 371 -197 23 0 83 30 197 97 90 53 163 102 163 107 -2 13 -692
855 -701 855 -4 0 -81 -136 -171 -302z"/>
</g>
</svg>
